<svg width="38" height="38" viewBox="0 0 38 38" fill="none" xmlns="http://www.w3.org/2000/svg">
<path d="M19 0C8.5025 0 0 8.5025 0 19C0 27.4075 5.43875 34.5088 12.9912 37.0262C13.9412 37.1925 14.2975 36.6225 14.2975 36.1237C14.2975 35.6725 14.2738 34.1763 14.2738 32.585C9.5 33.4637 8.265 31.4212 7.885 30.3525C7.67125 29.8062 6.745 28.12 5.9375 27.6687C5.2725 27.3125 4.3225 26.4338 5.91375 26.41C7.41 26.3862 8.47875 27.7875 8.835 28.3575C10.545 31.2312 13.2763 30.4238 14.3688 29.925C14.535 28.69 15.0337 27.8587 15.58 27.3837C11.3525 26.9087 6.935 25.27 6.935 18.0025C6.935 15.9362 7.67125 14.2262 8.8825 12.8962C8.6925 12.4212 8.0275 10.4738 9.0725 7.86125C9.0725 7.86125 10.6637 7.3625 14.2975 9.80875C15.8175 9.38125 17.4325 9.1675 19.0475 9.1675C20.6625 9.1675 22.2775 9.38125 23.7975 9.80875C27.4313 7.33875 29.0225 7.86125 29.0225 7.86125C30.0675 10.4738 29.4025 12.4212 29.2125 12.8962C30.4237 14.2262 31.16 15.9125 31.16 18.0025C31.16 25.2937 26.7188 26.9087 22.4913 27.3837C23.18 27.9775 23.7738 29.1175 23.7738 30.8988C23.7738 33.44 23.75 35.4825 23.75 36.1237C23.75 36.6225 24.1063 37.2163 25.0562 37.0262C28.8283 35.7532 32.1061 33.3292 34.4281 30.0954C36.7501 26.8617 37.9993 22.9811 38 19C38 8.5025 29.4975 0 19 0Z" fill="#675AF1"/>
</svg>
