<svg width="268" height="95" viewBox="0 0 268 95" fill="none" xmlns="http://www.w3.org/2000/svg">
<path d="M42.073 86.645L29.823 71.275C29.423 70.775 29.593 70.025 30.173 69.755L63.133 53.885C63.713 53.605 63.883 52.865 63.483 52.365L57.063 44.305C56.723 43.875 56.793 43.245 57.223 42.895L72.193 30.955C72.623 30.615 73.253 30.685 73.603 31.115L97.353 60.895L87.913 19.535C87.773 18.945 87.383 18.445 86.833 18.175L49.483 0.195C48.933 -0.065 48.293 -0.065 47.743 0.195L10.393 18.175C9.84298 18.435 9.44298 18.935 9.31298 19.535L4.69298 39.745L58.733 13.715C59.153 13.515 59.663 13.625 59.953 13.995L69.523 26.005C69.923 26.505 69.753 27.255 69.173 27.525L32.343 45.255C31.763 45.535 31.593 46.275 31.993 46.775L39.283 55.925C39.623 56.355 39.553 56.985 39.123 57.335L27.423 66.665C26.993 67.005 26.363 66.935 26.013 66.505L4.67298 39.745L0.0529785 59.955C-0.0870215 60.545 0.0529779 61.175 0.442978 61.645L26.293 94.065C26.673 94.545 27.253 94.815 27.853 94.815H69.313C69.923 94.815 70.493 94.535 70.873 94.065L97.323 60.885L43.283 86.915C42.863 87.115 42.363 87.005 42.063 86.635L42.073 86.645ZM48.583 49.765H48.593L48.583 49.775V49.765Z" fill="#06102D"/>
<path d="M123.163 71.255V31.135H131.533V63.695H148.863V71.255H123.163Z" fill="#06102D"/>
<path d="M153.283 38.695V31.135H180.843V43.635L166.363 71.255H158.863L157.873 69.515L172.473 41.895V38.695H153.283Z" fill="#06102D"/>
<path d="M188.053 71.255V40.555H223.063C229.343 40.555 232.483 43.695 232.483 49.975V71.255H224.463V49.395C224.463 48.155 223.843 47.535 222.603 47.535H214.283V71.265H206.263V47.535H196.083V71.265H188.063L188.053 71.255Z" fill="#06102D"/>
<path d="M240.623 82.885V40.555H257.603C263.883 40.555 267.023 43.695 267.023 49.975V61.835C267.023 68.115 263.883 71.255 257.603 71.255H248.653V82.885H240.623ZM248.643 64.275H257.133C258.373 64.275 258.993 63.655 258.993 62.415V49.385C258.993 48.145 258.373 47.525 257.133 47.525H248.643V64.275Z" fill="#06102D"/>
</svg>
